<svg width="16" height="16" viewBox="0 0 16 16" fill="none" xmlns="http://www.w3.org/2000/svg">
<path d="M12.25 4C11.6533 4 11.081 4.25286 10.659 4.70294C10.2371 5.15303 10 5.76348 10 6.4C10 7.03652 10.2371 7.64697 10.659 8.09706C11.081 8.54714 11.6533 8.8 12.25 8.8H13.75C13.9489 8.8 14.1397 8.88429 14.2803 9.03431C14.421 9.18434 14.5 9.38783 14.5 9.6C14.5 9.81217 14.421 10.0157 14.2803 10.1657C14.1397 10.3157 13.9489 10.4 13.75 10.4H10.7539C10.555 10.4 10.3642 10.4843 10.2236 10.6343C10.0829 10.7843 10.0039 10.9878 10.0039 11.2C10.0039 11.4122 10.0829 11.6157 10.2236 11.7657C10.3642 11.9157 10.555 12 10.7539 12H13.75C14.3467 12 14.919 11.7471 15.341 11.2971C15.7629 10.847 16 10.2365 16 9.6C16 8.96348 15.7629 8.38735 15.341 7.93726C14.919 7.48717 14.3467 7.23431 13.75 7.23431H12.25C12.0511 7.23431 11.8603 7.15003 11.7197 7C11.579 6.84997 11.5 6.61217 11.5 6.4C11.5 6.18783 11.579 5.88434 11.7197 5.73431C11.8603 5.58429 12.0511 5.5 12.25 5.5H15.25C15.4489 5.5 15.6397 5.41571 15.7803 5.26569C15.921 5.11566 16 5.01217 16 4.8C16 4.58783 15.921 4.38434 15.7803 4.23431C15.6397 4.08429 15.4489 4 15.25 4H12.25Z" fill="#E0E0E0"/>
<path fill-rule="evenodd" clip-rule="evenodd" d="M5 4H12L11 5.5H8V12H6.5V5.5H5V4Z" fill="#E0E0E0"/>
<path fill-rule="evenodd" clip-rule="evenodd" d="M0 4H6V5.5H3.5V12H2V5.5H0V4Z" fill="#E0E0E0"/>
</svg>
